<svg width="122" height="33" viewBox="0 0 122 33" fill="none" xmlns="http://www.w3.org/2000/svg">
<path d="M17.4689 2.12299V6.44637H11.5992V24.2764H6.20288V6.44637H0.333186V2.12299H17.4689ZM25.5735 9.60212C26.2047 8.63436 26.9936 7.87698 27.9403 7.32998C28.8871 6.76195 29.939 6.47793 31.0961 6.47793V12.1898H29.6129C28.2664 12.1898 27.2566 12.4844 26.5834 13.0734C25.9101 13.6415 25.5735 14.6513 25.5735 16.103V24.2764H20.1772V6.66727H25.5735V9.60212ZM32.6025 15.4403C32.6025 13.631 32.9391 12.0426 33.6123 10.6751C34.3066 9.30759 35.2428 8.25567 36.4209 7.51933C37.5991 6.78298 38.914 6.41481 40.3656 6.41481C41.6069 6.41481 42.6904 6.66727 43.616 7.17219C44.5628 7.67711 45.2886 8.33982 45.7935 9.16032V6.66727H51.1898V24.2764H45.7935V21.7833C45.2676 22.6038 44.5312 23.2665 43.5845 23.7714C42.6588 24.2764 41.5753 24.5288 40.3341 24.5288C38.9035 24.5288 37.5991 24.1607 36.4209 23.4243C35.2428 22.6669 34.3066 21.6045 33.6123 20.237C32.9391 18.8485 32.6025 17.2496 32.6025 15.4403ZM45.7935 15.4718C45.7935 14.1254 45.4148 13.0629 44.6574 12.2845C43.9211 11.5061 43.0165 11.1169 41.9435 11.1169C40.8705 11.1169 39.9554 11.5061 39.198 12.2845C38.4616 13.0419 38.0935 14.0938 38.0935 15.4403C38.0935 16.7867 38.4616 17.8597 39.198 18.6591C39.9554 19.4375 40.8705 19.8268 41.9435 19.8268C43.0165 19.8268 43.9211 19.4375 44.6574 18.6591C45.4148 17.8807 45.7935 16.8183 45.7935 15.4718ZM63.0148 19.2272L66.8333 6.66727H72.5767L66.3283 24.2764H59.6697L53.4213 6.66727H59.1963L63.0148 19.2272ZM80.2445 0.923806V24.2764H74.8481V0.923806H80.2445ZM92.1707 24.5288C90.4456 24.5288 88.8887 24.1607 87.5002 23.4243C86.1327 22.688 85.0493 21.6361 84.2498 20.2686C83.4714 18.9011 83.0822 17.3022 83.0822 15.4718C83.0822 13.6625 83.4819 12.0741 84.2814 10.7066C85.0808 9.3181 86.1748 8.25567 87.5633 7.51933C88.9519 6.78298 90.5087 6.41481 92.2338 6.41481C93.959 6.41481 95.5158 6.78298 96.9044 7.51933C98.2929 8.25567 99.3869 9.3181 100.186 10.7066C100.986 12.0741 101.386 13.6625 101.386 15.4718C101.386 17.2811 100.975 18.88 100.155 20.2686C99.3553 21.6361 98.2508 22.688 96.8412 23.4243C95.4527 24.1607 93.8959 24.5288 92.1707 24.5288ZM92.1707 19.8583C93.2016 19.8583 94.0747 19.4796 94.79 18.7222C95.5263 17.9649 95.8945 16.8814 95.8945 15.4718C95.8945 14.0623 95.5369 12.9788 94.8216 12.2214C94.1273 11.464 93.2647 11.0853 92.2338 11.0853C91.1819 11.0853 90.3088 11.464 89.6146 12.2214C88.9203 12.9577 88.5732 14.0412 88.5732 15.4718C88.5732 16.8814 88.9098 17.9649 89.583 18.7222C90.2773 19.4796 91.1399 19.8583 92.1707 19.8583ZM110.939 6.41481C112.18 6.41481 113.263 6.66727 114.189 7.17219C115.136 7.67711 115.862 8.33982 116.366 9.16032V6.66727H121.763V24.2448C121.763 25.8648 121.437 27.3269 120.785 28.6313C120.153 29.9567 119.175 31.0086 117.85 31.7871C116.545 32.5655 114.915 32.9547 112.958 32.9547C110.35 32.9547 108.235 32.3341 106.615 31.0928C104.995 29.8726 104.07 28.2105 103.838 26.1067H109.171C109.34 26.7799 109.739 27.3059 110.371 27.6846C111.002 28.0843 111.78 28.2842 112.706 28.2842C113.821 28.2842 114.704 27.9581 115.357 27.3059C116.03 26.6747 116.366 25.6544 116.366 24.2448V21.7518C115.841 22.5723 115.115 23.2455 114.189 23.7714C113.263 24.2764 112.18 24.5288 110.939 24.5288C109.487 24.5288 108.172 24.1607 106.994 23.4243C105.816 22.6669 104.88 21.6045 104.185 20.237C103.512 18.8485 103.175 17.2496 103.175 15.4403C103.175 13.631 103.512 12.0426 104.185 10.6751C104.88 9.30759 105.816 8.25567 106.994 7.51933C108.172 6.78298 109.487 6.41481 110.939 6.41481ZM116.366 15.4718C116.366 14.1254 115.988 13.0629 115.23 12.2845C114.494 11.5061 113.589 11.1169 112.516 11.1169C111.443 11.1169 110.528 11.5061 109.771 12.2845C109.035 13.0419 108.666 14.0938 108.666 15.4403C108.666 16.7867 109.035 17.8597 109.771 18.6591C110.528 19.4375 111.443 19.8268 112.516 19.8268C113.589 19.8268 114.494 19.4375 115.23 18.6591C115.988 17.8807 116.366 16.8183 116.366 15.4718Z" fill="url(#paint0_linear_11_305)"/>
<defs>
<linearGradient id="paint0_linear_11_305" x1="62.0758" y1="-6.72363" x2="32.0125" y2="32.5456" gradientUnits="userSpaceOnUse">
<stop stop-color="#F85E9F"/>
<stop offset="1" stop-color="#5D50C6"/>
</linearGradient>
</defs>
</svg>
